<?xml version="1.0" encoding="UTF-8" standalone="no"?>
<!DOCTYPE svg PUBLIC "-//W3C//DTD SVG 1.1//EN" "http://www.w3.org/Graphics/SVG/1.1/DTD/svg11.dtd">
<svg width="100%" height="100%" viewBox="0 0 1280 640" version="1.1" xmlns="http://www.w3.org/2000/svg" xmlns:xlink="http://www.w3.org/1999/xlink" xml:space="preserve" xmlns:serif="http://www.serif.com/" style="fill-rule:evenodd;clip-rule:evenodd;stroke-linecap:round;stroke-linejoin:round;stroke-miterlimit:2;">
    <g id="jado2023" transform="matrix(1.72707,0,0,1.72707,-463.754,-370.625)">
        <g transform="matrix(1.01391,0,0,0.997218,-641.818,-49.6408)">
            <path id="jado-j" d="M974.112,305.56L974.246,292.614" style="fill:none;stroke:black;stroke-width:43.18px;"/>
        </g>
        <g transform="matrix(1.01391,0,0,0.997218,-641.818,89.3592)">
            <path id="jado-ja" d="M925.015,470.799C952.112,470.799 974.112,448.432 974.112,420.881L974.246,292.614C974.246,265.063 996.246,242.695 1023.34,242.695L1134.24,242.695C1161.34,242.695 1183.34,265.063 1183.34,292.614L1183.34,382.304" style="fill:none;stroke:black;stroke-width:43.18px;"/>
        </g>
        <g transform="matrix(1.01391,0,0,0.997218,-419.839,1.88983)">
            <path id="jado-a" d="M855.758,410.411L855.758,420.881C855.758,448.432 877.757,470.799 904.855,470.799L983.204,470.799" style="fill:none;stroke:black;stroke-width:43.18px;"/>
        </g>
        <g transform="matrix(1.01391,0,0,0.997218,-5.12305,1.7787)">
            <path id="jado-do" d="M855.758,410.411L855.758,420.881C855.758,448.432 877.757,470.799 904.855,470.799L925.015,470.799C952.112,470.799 974.112,448.432 974.112,420.881L974.112,380.328C974.112,352.777 952.112,330.409 925.015,330.409L703.848,330.51C676.751,330.51 654.751,352.878 654.751,380.429L654.751,420.982C654.751,448.533 676.751,470.901 703.848,470.901L724.008,470.901C751.106,470.901 773.105,448.533 773.105,420.982L773.105,240.038" style="fill:none;stroke:black;stroke-width:43.18px;"/>
        </g>
    </g>
</svg>
