<?xml version="1.0" encoding="UTF-8" standalone="no"?><!DOCTYPE svg PUBLIC "-//W3C//DTD SVG 1.1//EN" "http://www.w3.org/Graphics/SVG/1.1/DTD/svg11.dtd"><svg width="100%" height="100%" viewBox="0 0 344 150" version="1.1" xmlns="http://www.w3.org/2000/svg" xmlns:xlink="http://www.w3.org/1999/xlink" xml:space="preserve" xmlns:serif="http://www.serif.com/" style="fill-rule:evenodd;clip-rule:evenodd;stroke-linejoin:round;stroke-miterlimit:2;"><path id="jadologo" d="M10.342,126.92c1.923,0 3.167,-0.452 3.732,-1.47c0.565,-1.018 0.792,-2.827 0.792,-5.541l0,-87.082c0,-0.905 0.226,-1.584 0.791,-2.262c0.453,-0.453 0.905,-0.792 1.471,-0.905c10.065,-1.244 62.993,-1.244 71.362,-1.244c23.297,0 34.945,10.065 34.945,30.422l0,53.154c0,0.905 -0.339,1.583 -0.904,2.149c-0.566,0.565 -1.357,0.905 -2.149,0.905c0,0 -36.19,1.357 -40.374,1.357c-3.506,0 -6.56,-0.453 -9.5,-1.357c-2.941,-0.905 -5.542,-2.262 -8.03,-4.185c-2.488,-1.923 -4.411,-4.637 -5.881,-8.03c-1.47,-3.392 -2.149,-7.464 -2.149,-12.101l0,-1.357c0,-8.708 2.941,-15.041 8.822,-19.112c5.88,-3.959 15.267,-5.994 27.934,-5.994l8.029,0l0,-5.429c0,-4.071 -0.904,-6.786 -2.714,-8.143c-1.809,-1.47 -4.637,-2.148 -8.482,-2.148c-7.351,0 -34.154,0.226 -48.969,0.678l0,70.57c0,9.387 -2.036,16.06 -5.994,19.792c-3.959,3.732 -10.97,5.655 -17.643,5.994c-0.792,0 -7.916,0.339 -12.214,-0.339c-1.923,-0.227 -2.94,-1.245 -2.94,-2.941l0.226,-12.666c0,-1.81 1.131,-2.715 3.166,-2.715l6.673,0Zm239.871,-126.325c0.792,0 1.471,0.339 2.149,0.905c0.565,0.565 0.905,1.357 0.905,2.148l0,92.85c6.446,0 13.119,0 18.886,-0.113c-2.262,-5.428 -3.506,-11.649 -3.506,-18.773l0,-10.405c0,-11.988 3.167,-21.488 9.726,-28.386c6.447,-7.012 15.607,-10.405 27.595,-10.405c11.988,0 21.149,3.506 27.595,10.405c6.446,6.898 9.726,16.398 9.952,28.386l0,10.405c0,11.988 -3.279,21.487 -9.726,28.386c-6.333,6.786 -15.38,10.178 -27.142,10.292c-10.065,1.244 -83.916,0 -92.284,0l0,-0.114c-10.857,-0.452 -19.226,-3.619 -25.22,-9.839c-6.447,-6.672 -9.726,-16.059 -9.726,-28.16l0,-11.649c0,-11.987 3.166,-21.374 9.5,-28.047c6.333,-6.672 15.606,-10.065 27.934,-10.065l12.214,0l0,-24.768c0,-0.904 0.339,-1.583 0.904,-2.148c0.566,-0.566 1.357,-0.905 2.149,-0.905l18.095,0Zm-88.891,114.451l-17.417,0c-0.791,0 -1.47,-0.34 -2.148,-0.905c-0.566,-0.566 -0.905,-1.357 -0.905,-2.149l0,-18.773c0,-0.792 0.226,-1.471 0.905,-2.036c0.678,-0.566 1.357,-0.792 2.261,-0.792l17.417,0c0.905,0 1.583,0.339 2.035,0.792c0.566,0.565 0.905,1.244 0.905,2.036l0,18.773c0,0.905 -0.339,1.583 -0.905,2.149c-0.565,0.565 -1.355,0.904 -2.148,0.905Zm-73.85,-16.851c-3.393,0 -5.768,-0.566 -7.238,-1.584c-1.471,-1.018 -2.149,-3.053 -2.149,-5.994l0,-1.357c0,-3.845 0.905,-6.559 2.827,-8.369c1.923,-1.696 5.316,-2.601 10.292,-2.601l8.482,0l0,19.452c-4.411,0.792 -8.369,0.453 -12.214,0.453Zm141.593,-1.81l0,-48.178c0,0 -8.03,0.226 -12.214,0.226c-2.602,0 -4.75,0.453 -6.56,1.358c-1.809,0.904 -3.166,2.148 -4.071,3.845c-0.905,1.696 -1.583,3.619 -2.036,5.654c-0.452,2.036 -0.678,4.524 -0.678,7.238l0,11.649c0,5.881 1.017,10.405 2.94,13.571c1.922,3.167 5.428,4.75 10.405,4.637l12.214,0Zm90.135,-18.773c0,5.994 -1.131,10.63 -3.393,13.684c-2.261,3.053 -5.541,4.637 -9.839,4.637c-4.41,0 -7.69,-1.584 -9.952,-4.637c-2.262,-3.054 -3.393,-7.69 -3.393,-13.684l0,-10.405c0,-5.994 1.131,-10.518 3.393,-13.571c2.262,-3.054 5.655,-4.637 9.952,-4.637c8.822,0 13.232,6.107 13.232,18.208l0,10.405Z" style="fill:#fff;"/></svg>