<?xml version="1.0" encoding="UTF-8" standalone="no"?>
<!DOCTYPE svg PUBLIC "-//W3C//DTD SVG 1.1//EN" "http://www.w3.org/Graphics/SVG/1.1/DTD/svg11.dtd">
<svg width="100%" height="100%" viewBox="0 0 344 150" version="1.1" xmlns="http://www.w3.org/2000/svg" xmlns:xlink="http://www.w3.org/1999/xlink" xml:space="preserve" xmlns:serif="http://www.serif.com/" style="fill-rule:evenodd;clip-rule:evenodd;stroke-linecap:round;stroke-linejoin:round;stroke-miterlimit:2;">
    <g transform="matrix(0.413111,0,0,0.413111,-92.1023,-90.2438)">
        <g transform="matrix(1.01391,0,0,0.997218,-641.818,-49.6408)">
            <path d="M974.112,305.56L974.246,292.614" style="fill:none;stroke:black;stroke-width:43.18px;"/>
        </g>
        <g transform="matrix(1.01391,0,0,0.997218,-641.818,89.3592)">
            <path d="M925.015,470.799C952.112,470.799 974.112,448.432 974.112,420.881L974.246,292.614C974.246,265.063 996.246,242.695 1023.34,242.695L1134.24,242.695C1161.34,242.695 1183.34,265.063 1183.34,292.614L1183.34,382.304" style="fill:none;stroke:black;stroke-width:43.18px;"/>
        </g>
        <g transform="matrix(1.01391,0,0,0.997218,-419.839,1.88983)">
            <path d="M855.758,410.411L855.758,420.881C855.758,448.432 877.757,470.799 904.855,470.799L988.915,470.799" style="fill:none;stroke:black;stroke-width:43.18px;"/>
        </g>
        <g transform="matrix(1.01391,0,0,0.997218,-5.12305,1.7787)">
            <path d="M855.758,410.411L855.758,420.881C855.758,448.432 877.757,470.799 904.855,470.799L925.015,470.799C952.112,470.799 974.112,448.432 974.112,420.881L974.112,380.328C974.112,352.777 952.112,330.409 925.015,330.409L703.848,330.51C676.751,330.51 654.751,352.878 654.751,380.429L654.751,420.982C654.751,448.533 676.751,470.901 703.848,470.901L724.008,470.901C751.106,470.901 773.105,448.533 773.105,420.982L773.105,240.038" style="fill:none;stroke:black;stroke-width:43.18px;"/>
        </g>
        <g id="pro" transform="matrix(1.0448,0,0,0.828741,376.207,174.981)">
            <path d="M501.376,452.462C501.376,455.012 500.906,457.426 499.967,459.703C499.028,461.98 497.538,463.847 495.497,465.304C493.456,466.761 490.811,467.49 487.56,467.49L479.92,467.49L479.92,485.182L471.413,485.182L471.413,437.366L487.56,437.366C490.63,437.366 493.186,438.038 495.226,439.381C497.267,440.725 498.802,442.535 499.832,444.812C500.861,447.089 501.376,449.639 501.376,452.462ZM487.018,458.883C489.004,458.883 490.458,458.314 491.379,457.175C492.301,456.037 492.761,454.466 492.761,452.462C492.761,450.458 492.301,448.887 491.379,447.749C490.458,446.61 489.004,446.041 487.018,446.041L479.92,446.041L479.92,458.883L487.018,458.883Z" style="fill-rule:nonzero;"/>
            <path d="M529.767,437.366C532.838,437.366 535.393,438.038 537.434,439.381C539.475,440.725 541.01,442.523 542.039,444.778C543.069,447.032 543.584,449.525 543.584,452.257C543.584,455.172 542.906,457.927 541.552,460.522C540.197,463.118 538.021,464.94 535.023,465.987L543.963,485.182L534.319,485.182L526.191,466.875L521.694,466.875L521.694,485.182L513.188,485.182L513.188,437.366L529.767,437.366ZM534.915,452.599C534.915,450.686 534.463,449.138 533.56,447.954C532.657,446.77 531.248,446.178 529.334,446.178L521.694,446.178L521.694,459.088L529.334,459.088C531.248,459.088 532.657,458.507 533.56,457.346C534.463,456.185 534.915,454.602 534.915,452.599Z" style="fill-rule:nonzero;"/>
            <path d="M573.492,485.66C570.819,485.66 568.309,485.056 565.961,483.85C563.613,482.643 561.545,480.946 559.757,478.761C557.969,476.575 556.578,473.99 555.585,471.008C554.592,468.025 554.095,464.735 554.095,461.137C554.095,457.585 554.592,454.318 555.585,451.335C556.578,448.352 557.969,445.768 559.757,443.582C561.545,441.396 563.613,439.711 565.961,438.527C568.309,437.343 570.819,436.751 573.492,436.751C576.201,436.751 578.73,437.343 581.077,438.527C583.425,439.711 585.484,441.396 587.254,443.582C589.024,445.768 590.406,448.352 591.399,451.335C592.392,454.318 592.889,457.585 592.889,461.137C592.889,464.735 592.392,468.025 591.399,471.008C590.406,473.99 589.024,476.575 587.254,478.761C585.484,480.946 583.425,482.643 581.077,483.85C578.73,485.056 576.201,485.66 573.492,485.66ZM573.492,475.96C575.623,475.96 577.501,475.357 579.127,474.15C580.752,472.943 582.017,471.224 582.92,468.993C583.823,466.761 584.274,464.143 584.274,461.137C584.274,456.629 583.281,453.043 581.294,450.379C579.308,447.715 576.707,446.383 573.492,446.383C570.241,446.383 567.631,447.715 565.663,450.379C563.694,453.043 562.71,456.629 562.71,461.137C562.71,464.143 563.161,466.761 564.064,468.993C564.967,471.224 566.223,472.943 567.83,474.15C569.437,475.357 571.325,475.96 573.492,475.96Z" style="fill-rule:nonzero;"/>
        </g>
    </g>
</svg>
