<?xml version="1.0" encoding="UTF-8" standalone="no"?>
<!DOCTYPE svg PUBLIC "-//W3C//DTD SVG 1.1//EN" "http://www.w3.org/Graphics/SVG/1.1/DTD/svg11.dtd">
<svg width="100%" height="100%" viewBox="0 0 576 576" xmlns="http://www.w3.org/2000/svg" xmlns:xlink="http://www.w3.org/1999/xlink" xml:space="preserve" style="fill-rule:evenodd;clip-rule:evenodd;stroke-linejoin:round;stroke-miterlimit:2;">
    <g id="bluesky" transform="matrix(1.00668,0,0,1.00668,-1.90051,0.545387)">
        <path d="M574.066,-0.542L574.066,571.637L1.888,571.637L1.888,-0.542L574.066,-0.542ZM378.053,314.582C426.25,319.92 478.506,303.228 493.243,253.905C497.679,238.942 504.521,149.467 504.521,136.986C504.521,124.505 502.04,103.376 488.28,97.211C476.4,91.873 458.205,86.008 410.685,119.617C360.986,154.655 307.601,225.709 287.977,263.83C268.353,225.709 214.969,154.655 165.344,119.617C117.75,86.008 71.433,124.58 71.433,136.986C71.433,149.392 78.275,238.942 82.712,253.905C97.373,303.304 149.705,319.996 197.901,314.582C200.382,314.206 202.863,313.905 205.42,313.529C202.939,313.905 200.457,314.281 197.901,314.582C127.299,325.108 64.591,350.823 146.848,442.328C237.3,536.013 270.759,422.252 287.977,364.583C305.195,422.252 324.97,531.878 427.528,442.328C504.521,364.583 448.656,325.033 378.053,314.582C375.572,314.281 373.016,313.981 370.535,313.605C373.091,313.905 375.572,314.281 378.053,314.582ZM378.053,314.657C375.572,314.356 373.016,314.056 370.535,313.68C373.091,313.981 375.572,314.356 378.053,314.657Z" style="fill:white;"/>
    </g>
</svg>
