<?xml version="1.0" encoding="UTF-8" standalone="no"?>
<!DOCTYPE svg PUBLIC "-//W3C//DTD SVG 1.1//EN" "http://www.w3.org/Graphics/SVG/1.1/DTD/svg11.dtd">
<svg width="100%" height="100%" viewBox="0 0 576 576"   xmlns="http://www.w3.org/2000/svg" xmlns:xlink="http://www.w3.org/1999/xlink" xml:space="preserve" style="fill-rule:evenodd;clip-rule:evenodd;stroke-linejoin:round;stroke-miterlimit:2;">
    <g id="whatsapp" transform="matrix(1.00668,0,0,1.00668,-1.90051,0.545387)">
        <path d="M574.066,-0.542L574.066,571.637L1.888,571.637L1.888,-0.542L574.066,-0.542ZM291.815,476.364C400.779,476.364 489.281,388.885 489.281,280.432C489.281,171.978 400.779,84.5 291.815,84.5C182.849,84.5 94.347,171.978 94.347,280.432C94.347,317.265 104.578,352.052 122.484,381.723L86.674,486.595L196.15,451.809C224.798,467.667 257.027,476.364 291.815,476.364ZM291.815,115.706C383.385,115.706 458.075,189.372 458.587,280.432C458.587,371.491 383.897,445.158 292.325,445.158C258.562,445.158 226.844,435.439 200.754,418.045L136.808,438.508L157.782,377.119C137.831,350.006 126.065,316.242 126.065,280.432C126.065,189.372 200.243,115.706 291.815,115.706ZM389.013,348.471C392.594,337.217 392.594,327.496 391.059,326.473C390.036,324.427 386.455,323.404 381.851,320.846C376.735,318.288 353.203,306.522 348.599,304.988C344.506,303.453 340.926,302.941 337.855,307.545C334.786,312.661 325.578,323.404 322.508,326.473C319.951,329.543 316.881,330.055 312.278,327.496C307.673,324.939 291.815,319.823 273.397,303.453C259.074,290.663 249.354,274.805 246.285,270.2C243.214,265.596 245.773,263.038 248.33,260.481C250.377,258.434 252.935,254.853 255.492,252.296C257.539,249.226 258.562,247.18 260.096,244.111C261.631,241.04 260.608,238.483 259.585,235.926C258.562,233.367 248.842,209.835 244.749,200.115C240.657,190.395 237.076,191.93 234.007,191.93C231.448,191.93 227.867,191.419 224.798,191.419C221.729,191.419 216.613,192.953 212.009,197.557C207.405,202.162 195.127,213.928 195.127,237.46C195.127,260.992 212.521,284.013 215.078,287.082C217.636,290.663 248.842,340.286 297.953,359.725C347.576,378.654 347.576,372.515 356.272,371.491C364.969,370.469 384.921,359.725 389.013,348.471Z" style="fill:white;"/>
    </g>
</svg>
