<?xml version="1.0" encoding="UTF-8" standalone="no"?>
<!DOCTYPE svg PUBLIC "-//W3C//DTD SVG 1.1//EN" "http://www.w3.org/Graphics/SVG/1.1/DTD/svg11.dtd">
<svg width="100%" height="100%" viewBox="0 0 576 576" version="1.1" xmlns="http://www.w3.org/2000/svg" xmlns:xlink="http://www.w3.org/1999/xlink" xml:space="preserve" xmlns:serif="http://www.serif.com/" style="fill-rule:evenodd;clip-rule:evenodd;stroke-linejoin:round;stroke-miterlimit:2;">
    <path id="bluesky" d="M550.626,85.621L550.626,487.339C550.626,522.346 522.204,550.768 487.197,550.768L85.479,550.768C50.471,550.768 22.05,522.346 22.05,487.339L22.05,85.621C22.05,50.614 50.471,22.192 85.479,22.192L487.197,22.192C522.204,22.192 550.626,50.614 550.626,85.621ZM197.322,317.228C199.82,316.85 202.318,316.547 204.891,316.169C202.393,316.547 199.896,316.926 197.322,317.228C126.248,327.825 63.122,353.711 145.928,445.827C236.984,540.138 270.667,425.618 288,367.563C305.333,425.618 325.24,535.975 428.483,445.827C505.99,367.563 449.752,327.749 378.678,317.228C376.18,316.926 373.607,316.623 371.109,316.244C373.682,316.547 376.18,316.926 378.678,317.228C427.196,322.602 479.801,305.799 494.637,256.146C499.102,241.083 505.99,151.011 505.99,138.446C505.99,125.881 503.492,104.612 489.641,98.406C477.682,93.032 459.364,87.128 411.528,120.962C361.496,156.234 307.755,227.762 288,266.137C268.245,227.762 214.504,156.234 164.548,120.962C116.636,87.128 98.394,92.956 86.359,98.406C72.508,104.688 70.01,125.957 70.01,138.446C70.01,150.935 76.898,241.083 81.363,256.146C96.123,305.875 148.804,322.678 197.322,317.228ZM378.678,317.304C376.18,317.001 373.607,316.699 371.109,316.32C373.682,316.623 376.18,317.001 378.678,317.304Z" style="fill:rgb(235,235,235);"/>
</svg>
