<?xml version="1.0" encoding="UTF-8" standalone="no"?>
<!DOCTYPE svg PUBLIC "-//W3C//DTD SVG 1.1//EN" "http://www.w3.org/Graphics/SVG/1.1/DTD/svg11.dtd">
<svg width="100%" height="100%" viewBox="0 0 576 576" version="1.1" xmlns="http://www.w3.org/2000/svg" xmlns:xlink="http://www.w3.org/1999/xlink" xml:space="preserve" xmlns:serif="http://www.serif.com/" style="fill-rule:evenodd;clip-rule:evenodd;stroke-linejoin:round;stroke-miterlimit:2;">
    <path id="instagram" d="M550.626,85.621L550.626,487.339C550.626,522.346 522.204,550.768 487.197,550.768L85.479,550.768C50.471,550.768 22.05,522.346 22.05,487.339L22.05,85.621C22.05,50.614 50.471,22.192 85.479,22.192L487.197,22.192C522.204,22.192 550.626,50.614 550.626,85.621ZM477.144,477.073L477.144,476.931C503.738,450.337 511.986,418.054 513.835,381.648C515.968,343.961 515.968,231.47 513.835,194.068C512.128,157.661 503.738,125.379 477.144,98.785C450.55,72.191 418.267,63.943 381.861,62.094C344.317,59.961 231.683,59.961 194.139,62.094C157.875,63.801 125.45,72.191 98.856,98.785C72.262,125.379 64.014,157.661 62.165,194.068C60.032,231.612 60.032,344.245 62.165,381.79C63.872,418.196 72.262,450.479 98.856,477.073C125.45,503.667 157.733,512.057 194.139,513.906C231.683,516.039 344.317,516.039 381.861,513.906C418.267,512.057 450.55,503.667 477.144,477.073ZM448.275,127.654L448.275,127.37C455.67,134.907 461.5,143.724 465.34,153.537C475.579,179.278 475.011,235.31 474.584,271.574C474.442,277.69 474.442,283.094 474.442,287.787C474.442,292.48 474.584,298.026 474.584,303.999C475.011,340.406 475.579,396.438 465.34,422.036C461.5,431.849 455.812,440.808 448.275,448.203C440.737,455.598 431.92,461.429 422.107,465.269C396.367,475.508 340.477,474.94 304.212,474.513C298.239,474.371 292.693,474.371 288,474.371C283.307,474.371 277.903,474.513 272.072,474.513C235.808,474.94 179.633,475.366 153.893,465.269C144.08,461.429 135.121,455.741 127.725,448.203C120.33,440.666 114.5,431.849 110.66,422.036C100.563,396.296 101.132,339.979 101.416,303.715C101.558,297.884 101.558,292.48 101.558,287.929C101.558,283.378 101.416,277.974 101.416,272.143C101.132,235.879 100.563,179.562 110.66,153.822C114.5,144.009 120.188,135.049 127.725,127.654C135.263,120.259 144.08,114.429 153.893,110.589C179.633,100.349 235.523,100.918 271.788,101.345C277.761,101.487 283.307,101.487 288,101.487C292.693,101.487 298.097,101.345 303.928,101.345C340.192,100.918 396.367,100.492 422.107,110.589C431.92,114.429 440.879,120.259 448.275,127.654ZM352.849,190.939L352.707,190.939C333.533,178.133 310.986,171.296 287.929,171.296C223.946,171.296 171.296,223.946 171.296,287.929C171.296,326.853 190.782,363.3 223.151,384.918C242.341,397.75 264.915,404.601 288,404.601C352.004,404.601 404.672,351.933 404.672,287.929C404.672,249.012 385.201,212.57 352.849,190.939ZM245.905,224.928C258.383,216.586 273.061,212.132 288.071,212.132C329.691,212.132 363.94,246.38 363.94,288C363.94,313.308 351.277,337.006 330.237,351.072C317.759,359.414 303.081,363.868 288.071,363.868C246.451,363.868 212.203,329.62 212.203,288C212.203,262.692 224.866,238.994 245.905,224.928ZM394.376,189.091L394.518,189.091C398.926,192.077 404.188,193.641 409.592,193.641C413.148,193.641 416.703,192.93 419.974,191.508C423.245,190.086 426.374,188.095 428.791,185.535C431.209,182.975 433.342,179.989 434.622,176.718C435.902,173.447 436.613,169.892 436.613,166.336C436.613,160.932 435.049,155.67 432.062,151.262C429.076,146.853 424.809,143.44 419.832,141.307C414.854,139.174 409.308,138.747 404.046,139.743C398.784,140.738 393.807,143.298 390.109,147.138C386.412,150.977 383.71,155.67 382.714,161.075C381.719,166.479 382.145,171.883 384.278,176.86C386.412,181.838 389.967,186.104 394.376,189.091Z" style="fill:rgb(235,235,235);"/>
</svg>
