<?xml version="1.0" encoding="UTF-8" standalone="no"?>
<!DOCTYPE svg PUBLIC "-//W3C//DTD SVG 1.1//EN" "http://www.w3.org/Graphics/SVG/1.1/DTD/svg11.dtd">
<svg width="100%" height="100%" viewBox="0 0 576 576"   xmlns="http://www.w3.org/2000/svg" xmlns:xlink="http://www.w3.org/1999/xlink" xml:space="preserve" style="fill-rule:evenodd;clip-rule:evenodd;stroke-linejoin:round;stroke-miterlimit:2;">
    <g id="linkedin" transform="matrix(1.00668,0,0,1.00668,-1.90051,0.545387)">
        <path d="M574.066,-0.542L574.066,571.637L1.888,571.637L1.888,-0.542L574.066,-0.542ZM143.946,187.398C169.134,187.398 189.473,167.059 189.473,141.871C189.473,116.802 169.016,96.344 143.946,96.344C118.758,96.344 98.419,116.802 98.419,141.871C98.419,166.941 118.758,187.398 143.946,187.398ZM183.324,474.751L183.324,221.928L104.686,221.928L104.686,474.751L183.324,474.751ZM477.535,474.751L477.535,336.159C477.535,268.046 462.754,215.661 383.288,215.661C345.093,215.661 319.432,236.591 308.908,256.458L307.844,256.458L307.844,221.928L232.517,221.928L232.517,474.751L311.036,474.751L311.036,349.64C311.036,316.648 317.304,284.72 358.219,284.72C398.425,284.72 399.016,322.442 399.016,351.769L399.016,474.751L477.535,474.751Z" style="fill:white;"/>
    </g>
</svg>
