<?xml version="1.0" encoding="UTF-8" standalone="no"?>
<!DOCTYPE svg PUBLIC "-//W3C//DTD SVG 1.1//EN" "http://www.w3.org/Graphics/SVG/1.1/DTD/svg11.dtd">
<svg width="100%" height="100%" viewBox="0 0 576 576" version="1.1" xmlns="http://www.w3.org/2000/svg" xmlns:xlink="http://www.w3.org/1999/xlink" xml:space="preserve" xmlns:serif="http://www.serif.com/" style="fill-rule:evenodd;clip-rule:evenodd;stroke-linejoin:round;stroke-miterlimit:2;">
    <g id="whatsapp" transform="matrix(1.02613,0,0,1.02613,-14.8308,-14.4686)">
        <path d="M575.786,14.1L575.786,575.433L14.453,575.433L14.453,14.1L575.786,14.1ZM298.884,481.966C405.783,481.966 492.607,396.145 492.607,289.748C492.607,183.35 405.783,97.53 298.884,97.53C191.984,97.53 105.16,183.35 105.16,289.748C105.16,325.883 115.197,360.01 132.763,389.119L97.632,492.003L205.033,457.876C233.138,473.434 264.756,481.966 298.884,481.966ZM298.884,128.144C388.719,128.144 461.993,200.414 462.495,289.748C462.495,379.081 389.221,451.351 299.385,451.351C266.262,451.351 235.145,441.816 209.55,424.752L146.816,444.827L167.392,384.602C147.819,358.003 136.276,324.879 136.276,289.748C136.276,200.414 209.048,128.144 298.884,128.144ZM394.24,356.497C397.753,345.456 397.753,335.92 396.247,334.916C395.244,332.909 391.73,331.905 387.214,329.396C382.195,326.886 359.109,315.343 354.592,313.838C350.577,312.332 347.064,311.83 344.052,316.347C341.041,321.366 332.007,331.905 328.996,334.916C326.487,337.928 323.475,338.43 318.959,335.92C314.442,333.411 298.884,328.392 280.816,312.332C266.764,299.785 257.228,284.227 254.217,279.71C251.205,275.193 253.715,272.684 256.224,270.175C258.232,268.167 260.741,264.654 263.25,262.145C265.258,259.133 266.262,257.126 267.767,254.115C269.273,251.103 268.269,248.594 267.265,246.085C266.262,243.575 256.726,220.489 252.711,210.953C248.696,201.418 245.183,202.923 242.172,202.923C239.662,202.923 236.149,202.422 233.138,202.422C230.127,202.422 225.108,203.927 220.591,208.444C216.074,212.961 204.029,224.504 204.029,247.59C204.029,270.676 221.093,293.261 223.602,296.272C226.112,299.785 256.726,348.467 304.906,367.538C353.588,386.108 353.588,380.085 362.12,379.081C370.652,378.078 390.225,367.538 394.24,356.497Z" style="fill:rgb(235,235,235);"/>
    </g>
</svg>
