<?xml version="1.0" encoding="UTF-8" standalone="no"?>
<!DOCTYPE svg PUBLIC "-//W3C//DTD SVG 1.1//EN" "http://www.w3.org/Graphics/SVG/1.1/DTD/svg11.dtd">
<svg width="100%" height="100%" viewBox="0 0 576 576" version="1.1" xmlns="http://www.w3.org/2000/svg" xmlns:xlink="http://www.w3.org/1999/xlink" xml:space="preserve" xmlns:serif="http://www.serif.com/" style="fill-rule:evenodd;clip-rule:evenodd;stroke-linejoin:round;stroke-miterlimit:2;">
    <g id="bluesky" transform="matrix(1.02613,0,0,1.02613,-14.8308,-14.4686)">
        <path d="M575.786,14.1L575.786,575.433L14.453,575.433L14.453,14.1L575.786,14.1ZM383.488,323.251C430.771,328.488 482.037,312.112 496.494,263.723C500.846,249.044 507.559,161.266 507.559,149.021C507.559,136.776 505.125,116.049 491.626,110C479.971,104.763 462.12,99.009 415.502,131.982C366.744,166.355 314.372,236.062 295.12,273.46C275.867,236.062 223.495,166.355 174.811,131.982C128.119,99.009 110.342,104.689 98.613,110C85.114,116.122 82.68,136.85 82.68,149.021C82.68,161.192 89.393,249.044 93.745,263.723C108.129,312.186 159.468,328.562 206.751,323.251C209.185,322.882 211.619,322.587 214.127,322.218C211.693,322.587 209.259,322.956 206.751,323.251C137.487,333.578 75.968,358.805 156.665,448.575C245.403,540.484 278.228,428.88 295.12,372.303C312.011,428.88 331.411,536.427 432.025,448.575C507.559,372.303 452.752,333.504 383.488,323.251C381.054,322.956 378.546,322.66 376.112,322.292C378.62,322.587 381.054,322.956 383.488,323.251ZM383.488,323.324C381.054,323.029 378.546,322.734 376.112,322.365C378.62,322.66 381.054,323.029 383.488,323.324Z" style="fill:rgb(235,235,235);"/>
    </g>
</svg>
