<?xml version="1.0" encoding="UTF-8" standalone="no"?>
<!DOCTYPE svg PUBLIC "-//W3C//DTD SVG 1.1//EN" "http://www.w3.org/Graphics/SVG/1.1/DTD/svg11.dtd">
<svg width="100%" height="100%" viewBox="0 0 576 576"   xmlns="http://www.w3.org/2000/svg" xmlns:xlink="http://www.w3.org/1999/xlink" xml:space="preserve" style="fill-rule:evenodd;clip-rule:evenodd;stroke-linejoin:round;stroke-miterlimit:2;">
    <g id="location" transform="matrix(1.00668,0,0,1.00668,-1.90051,0.545387)">
        <path d="M574.066,-0.542L574.066,571.637L1.888,571.637L1.888,-0.542L574.066,-0.542ZM307.63,487.761C350.168,434.526 447.186,305.5 447.186,233.027C447.186,145.131 375.874,73.818 287.977,73.818C200.081,73.818 128.768,145.131 128.768,233.027C128.768,305.5 225.786,434.526 268.325,487.761C278.524,500.448 297.43,500.448 307.63,487.761ZM287.977,179.958C317.09,179.958 341.047,203.914 341.047,233.027C341.047,262.14 317.09,286.097 287.977,286.097C258.864,286.097 234.908,262.14 234.908,233.027C234.908,203.914 258.864,179.958 287.977,179.958Z" style="fill:white;"/>
    </g>
</svg>
