<?xml version="1.0" encoding="UTF-8" standalone="no"?>
<!DOCTYPE svg PUBLIC "-//W3C//DTD SVG 1.1//EN" "http://www.w3.org/Graphics/SVG/1.1/DTD/svg11.dtd">
<svg width="100%" height="100%" viewBox="0 0 576 576" version="1.1" xmlns="http://www.w3.org/2000/svg" xmlns:xlink="http://www.w3.org/1999/xlink" xml:space="preserve" xmlns:serif="http://www.serif.com/" style="fill-rule:evenodd;clip-rule:evenodd;stroke-linejoin:round;stroke-miterlimit:2;">
    <path id="linkedin" d="M550.626,85.621L550.626,487.339C550.626,522.346 522.204,550.768 487.197,550.768L85.479,550.768C50.471,550.768 22.05,522.346 22.05,487.339L22.05,85.621C22.05,50.614 50.471,22.192 85.479,22.192L487.197,22.192C522.204,22.192 550.626,50.614 550.626,85.621ZM143.007,189.195C168.363,189.195 188.838,168.72 188.838,143.364C188.838,118.127 168.244,97.533 143.007,97.533C117.651,97.533 97.176,118.127 97.176,143.364C97.176,168.601 117.651,189.195 143.007,189.195ZM478.824,478.467L478.824,338.95C478.824,270.382 463.944,217.646 383.948,217.646C345.497,217.646 319.665,238.717 309.07,258.716L307.999,258.716L307.999,223.955L232.169,223.955L232.169,478.467L311.213,478.467L311.213,352.521C311.213,319.308 317.522,287.167 358.711,287.167C399.185,287.167 399.78,325.141 399.78,354.663L399.78,478.467L478.824,478.467ZM182.648,478.467L182.648,223.955L103.485,223.955L103.485,478.467L182.648,478.467Z" style="fill:rgb(235,235,235);"/>
</svg>
