<?xml version="1.0" encoding="UTF-8" standalone="no"?>
<!DOCTYPE svg PUBLIC "-//W3C//DTD SVG 1.1//EN" "http://www.w3.org/Graphics/SVG/1.1/DTD/svg11.dtd">
<svg width="100%" height="100%" viewBox="0 0 576 576" version="1.1" xmlns="http://www.w3.org/2000/svg" xmlns:xlink="http://www.w3.org/1999/xlink" xml:space="preserve" xmlns:serif="http://www.serif.com/" style="fill-rule:evenodd;clip-rule:evenodd;stroke-linejoin:round;stroke-miterlimit:2;">
    <path id="phone" d="M550.626,85.621L550.626,487.339C550.626,522.346 522.204,550.768 487.197,550.768L85.479,550.768C50.471,550.768 22.05,522.346 22.05,487.339L22.05,85.621C22.05,50.614 50.471,22.192 85.479,22.192L487.197,22.192C522.204,22.192 550.626,50.614 550.626,85.621ZM181.46,92.277L113.812,110.727C100.436,114.416 91.212,126.562 91.212,140.399C91.212,330.582 245.418,484.788 435.601,484.788C449.438,484.788 461.584,475.564 465.273,462.034L483.723,394.386C487.72,379.473 480.187,363.945 465.888,357.949L392.091,327.2C379.484,321.972 365.032,325.662 356.422,336.117L325.365,374.092C271.247,348.57 227.43,304.753 201.908,250.635L239.729,219.578C250.184,210.968 253.874,196.516 248.647,183.909L217.898,110.112C212.055,95.813 196.373,88.28 181.46,92.277Z" style="fill:rgb(235,235,235);"/>
</svg>
