<?xml version="1.0" encoding="UTF-8" standalone="no"?>
<!DOCTYPE svg PUBLIC "-//W3C//DTD SVG 1.1//EN" "http://www.w3.org/Graphics/SVG/1.1/DTD/svg11.dtd">
<svg width="100%" height="100%" viewBox="0 0 576 576"   xmlns="http://www.w3.org/2000/svg" xmlns:xlink="http://www.w3.org/1999/xlink" xml:space="preserve" style="fill-rule:evenodd;clip-rule:evenodd;stroke-linejoin:round;stroke-miterlimit:2;">
    <g id="facebook" transform="matrix(1.00668,0,0,1.00668,-1.90051,0.545387)">
        <path d="M574.066,-0.542L574.066,571.637L1.888,571.637L1.888,-0.542L574.066,-0.542ZM213.249,571.406L321.89,571.406L321.89,374.717L403.019,374.717L419.877,283.169L322.007,283.169L322.007,250.623C322.007,202.274 340.972,183.66 390.142,183.66C405.478,183.66 417.77,184.128 424.794,184.83L424.794,101.945C411.331,98.199 378.552,94.453 359.586,94.453C259.375,94.453 213.249,141.749 213.249,243.716L213.249,283.169L151.437,283.169L151.437,374.717L213.249,374.717L213.249,571.406Z" style="fill:white;"/>
    </g>
</svg>
