<?xml version="1.0" encoding="UTF-8" standalone="no"?>
<!DOCTYPE svg PUBLIC "-//W3C//DTD SVG 1.1//EN" "http://www.w3.org/Graphics/SVG/1.1/DTD/svg11.dtd">
<svg width="100%" height="100%" viewBox="0 0 576 576" version="1.1" xmlns="http://www.w3.org/2000/svg" xmlns:xlink="http://www.w3.org/1999/xlink" xml:space="preserve" xmlns:serif="http://www.serif.com/" style="fill-rule:evenodd;clip-rule:evenodd;stroke-linejoin:round;stroke-miterlimit:2;">
    <g id="instagram" transform="matrix(1.02613,0,0,1.02613,-14.8308,-14.4686)">
        <path d="M575.786,14.1L575.786,575.433L14.453,575.433L14.453,14.1L575.786,14.1ZM479.447,479.025L479.447,478.886C505.364,452.969 513.402,421.509 515.204,386.029C517.283,349.302 517.283,239.676 515.204,203.226C513.541,167.747 505.364,136.286 479.447,110.37C453.53,84.453 422.07,76.415 386.59,74.613C350.002,72.534 240.237,72.534 203.649,74.613C168.308,76.276 136.709,84.453 110.792,110.37C84.875,136.286 76.837,167.747 75.035,203.226C72.956,239.815 72.956,349.58 75.035,386.168C76.698,421.648 84.875,453.108 110.792,479.025C136.709,504.941 168.169,513.118 203.649,514.92C240.237,516.999 350.002,516.999 386.59,514.92C422.07,513.118 453.53,504.941 479.447,479.025ZM451.313,138.504L451.313,138.227C458.52,145.572 464.202,154.165 467.944,163.728C477.922,188.813 477.368,243.418 476.952,278.759C476.814,284.719 476.814,289.985 476.814,294.559C476.814,299.132 476.952,304.537 476.952,310.358C477.368,345.838 477.922,400.443 467.944,425.389C464.202,434.952 458.658,443.684 451.313,450.89C443.967,458.097 435.375,463.779 425.812,467.521C400.727,477.5 346.26,476.946 310.919,476.53C305.098,476.391 299.693,476.391 295.12,476.391C290.546,476.391 285.279,476.53 279.597,476.53C244.256,476.946 189.512,477.362 164.427,467.521C154.864,463.779 146.133,458.236 138.926,450.89C131.719,443.545 126.037,434.952 122.295,425.389C112.455,400.304 113.01,345.422 113.287,310.081C113.425,304.399 113.425,299.132 113.425,294.697C113.425,290.262 113.287,284.996 113.287,279.313C113.01,243.972 112.455,189.09 122.295,164.005C126.037,154.442 131.581,145.711 138.926,138.504C146.272,131.297 154.864,125.615 164.427,121.873C189.512,111.894 243.979,112.449 279.32,112.864C285.141,113.003 290.546,113.003 295.12,113.003C299.693,113.003 304.96,112.864 310.642,112.864C345.983,112.449 400.727,112.033 425.812,121.873C435.375,125.615 444.106,131.297 451.313,138.504ZM398.786,198.376L398.925,198.376C403.221,201.286 408.349,202.811 413.616,202.811C417.081,202.811 420.545,202.118 423.733,200.732C426.921,199.346 429.97,197.406 432.326,194.911C434.682,192.416 436.761,189.506 438.008,186.318C439.255,183.131 439.948,179.666 439.948,176.201C439.948,170.934 438.424,165.807 435.513,161.51C432.603,157.214 428.445,153.888 423.594,151.809C418.744,149.73 413.339,149.314 408.211,150.284C403.083,151.254 398.232,153.749 394.629,157.491C391.025,161.233 388.392,165.807 387.422,171.073C386.452,176.34 386.867,181.606 388.946,186.457C391.025,191.308 394.49,195.465 398.786,198.376ZM358.317,200.177L358.179,200.177C339.493,187.698 317.52,181.034 295.05,181.034C232.697,181.034 181.387,232.344 181.387,294.697C181.387,332.63 200.377,368.149 231.922,389.217C250.623,401.721 272.622,408.398 295.12,408.398C357.494,408.398 408.821,357.072 408.821,294.697C408.821,256.771 389.845,221.257 358.317,200.177ZM254.096,233.301C266.257,225.171 280.561,220.83 295.189,220.83C335.749,220.83 369.125,254.206 369.125,294.766C369.125,319.43 356.785,342.525 336.281,356.232C324.121,364.362 309.817,368.703 295.189,368.703C254.628,368.703 221.252,335.327 221.252,294.766C221.252,270.103 233.593,247.008 254.096,233.301Z" style="fill:rgb(235,235,235);"/>
    </g>
</svg>
