<?xml version="1.0" encoding="UTF-8" standalone="no"?>
<!DOCTYPE svg PUBLIC "-//W3C//DTD SVG 1.1//EN" "http://www.w3.org/Graphics/SVG/1.1/DTD/svg11.dtd">
<svg width="100%" height="100%" viewBox="0 0 576 576" xmlns="http://www.w3.org/2000/svg" xmlns:xlink="http://www.w3.org/1999/xlink" xml:space="preserve" style="fill-rule:evenodd;clip-rule:evenodd;stroke-linejoin:round;stroke-miterlimit:2;">
    <g id="mastodon" transform="matrix(1.02613,0,0,1.02613,-14.8308,-14.4686)">
        <path d="M575.786,14.1L575.786,575.433L14.453,575.433L14.453,14.1L575.786,14.1ZM498.782,219.802C498.782,125.077 436.694,97.303 436.694,97.303C375.766,69.334 213.954,69.626 153.611,97.303C153.611,97.303 91.513,125.077 91.513,219.802C91.513,332.556 85.081,472.597 194.454,501.54C233.932,511.968 267.856,514.209 295.152,512.65C344.668,509.921 372.453,495.011 372.453,495.011L370.796,459.051C370.796,459.051 335.41,470.16 295.64,468.893C256.259,467.529 214.753,464.605 208.292,416.268C207.693,411.778 207.4,407.252 207.415,402.722C290.864,423.09 362.025,411.591 381.613,409.252C436.304,402.722 483.939,369.003 490.011,338.208C499.561,289.676 498.782,219.802 498.782,219.802ZM425.574,341.814L380.132,341.814L380.132,230.522C380.132,182.088 317.762,180.236 317.762,237.246L317.762,298.155L272.611,298.155L272.611,237.236C272.611,180.226 210.241,182.078 210.241,230.512L210.241,341.804L164.701,341.804C164.701,222.813 159.633,197.67 182.642,171.26C207.883,143.096 260.43,141.245 283.828,177.205L295.133,196.209L306.437,177.205C329.934,141.05 382.568,143.291 407.623,171.26C430.73,197.865 425.555,222.911 425.555,341.804L425.574,341.814Z" style="fill:rgb(235,235,235);"/>
    </g>
</svg>
