<?xml version="1.0" encoding="UTF-8" standalone="no"?>
<!DOCTYPE svg PUBLIC "-//W3C//DTD SVG 1.1//EN" "http://www.w3.org/Graphics/SVG/1.1/DTD/svg11.dtd">
<svg width="100%" height="100%" viewBox="0 0 576 576" version="1.1" xmlns="http://www.w3.org/2000/svg" xmlns:xlink="http://www.w3.org/1999/xlink" xml:space="preserve" xmlns:serif="http://www.serif.com/" style="fill-rule:evenodd;clip-rule:evenodd;stroke-linejoin:round;stroke-miterlimit:2;">
    <path id="mastodon" d="M550.626,85.621L550.626,487.339C550.626,522.346 522.204,550.768 487.197,550.768L85.479,550.768C50.471,550.768 22.05,522.346 22.05,487.339L22.05,85.621C22.05,50.614 50.471,22.192 85.479,22.192L487.197,22.192C522.204,22.192 550.626,50.614 550.626,85.621ZM496.984,211.077C496.984,113.877 433.274,85.377 433.274,85.377C370.754,56.677 204.714,56.977 142.794,85.377C142.794,85.377 79.074,113.877 79.074,211.077C79.074,326.777 72.474,470.477 184.704,500.177C225.214,510.877 260.024,513.177 288.034,511.577C338.844,508.777 367.354,493.477 367.354,493.477L365.654,456.577C365.654,456.577 329.344,467.977 288.534,466.677C248.124,465.277 205.534,462.277 198.904,412.677C198.289,408.069 197.988,403.425 198.004,398.777C283.634,419.677 356.654,407.877 376.754,405.477C432.874,398.777 481.754,364.177 487.984,332.577C497.784,282.777 496.984,211.077 496.984,211.077ZM421.864,336.277L375.234,336.277L375.234,222.077C375.234,172.377 311.234,170.477 311.234,228.977L311.234,291.477L264.904,291.477L264.904,228.967C264.904,170.467 200.904,172.367 200.904,222.067L200.904,336.267L154.174,336.267C154.174,214.167 148.974,188.367 172.584,161.267C198.484,132.367 252.404,130.467 276.414,167.367L288.014,186.867L299.614,167.367C323.724,130.267 377.734,132.567 403.444,161.267C427.154,188.567 421.844,214.267 421.844,336.267L421.864,336.277Z" style="fill:rgb(235,235,235);"/>
</svg>
