<?xml version="1.0" encoding="UTF-8" standalone="no"?>
<!DOCTYPE svg PUBLIC "-//W3C//DTD SVG 1.1//EN" "http://www.w3.org/Graphics/SVG/1.1/DTD/svg11.dtd">
<svg width="100%" height="100%" viewBox="0 0 576 576"   xmlns="http://www.w3.org/2000/svg" xmlns:xlink="http://www.w3.org/1999/xlink" xml:space="preserve" style="fill-rule:evenodd;clip-rule:evenodd;stroke-linejoin:round;stroke-miterlimit:2;">
    <g id="mail" transform="matrix(1.00668,0,0,1.00668,-1.90051,0.545387)">
        <path d="M574.066,-0.542L574.066,571.637L1.888,571.637L1.888,-0.542L574.066,-0.542ZM287.978,364.472C256.407,364.472 224.838,336.849 209.053,325.01C130.128,269.763 106.451,250.032 90.666,238.193L90.666,403.934C90.666,425.725 108.338,443.397 130.128,443.397L445.827,443.397C467.617,443.397 485.289,425.725 485.289,403.934L485.289,238.193C469.504,250.032 445.827,269.763 366.902,325.01C351.117,336.849 319.547,364.472 287.978,364.472ZM445.827,127.698L130.128,127.698C108.338,127.698 90.666,145.37 90.666,167.161L90.666,186.892C122.236,210.569 118.289,210.569 232.731,293.44C244.569,301.332 268.246,325.01 287.978,325.01C307.709,325.01 331.386,301.332 343.224,297.387C457.665,214.516 453.719,214.516 485.289,190.838L485.289,167.161C485.289,145.37 467.617,127.698 445.827,127.698Z" style="fill:white;"/>
    </g>
</svg>
