<?xml version="1.0" encoding="UTF-8" standalone="no"?>
<!DOCTYPE svg PUBLIC "-//W3C//DTD SVG 1.1//EN" "http://www.w3.org/Graphics/SVG/1.1/DTD/svg11.dtd">
<svg width="100%" height="100%" viewBox="0 0 576 576" version="1.1" xmlns="http://www.w3.org/2000/svg" xmlns:xlink="http://www.w3.org/1999/xlink" xml:space="preserve" xmlns:serif="http://www.serif.com/" style="fill-rule:evenodd;clip-rule:evenodd;stroke-linejoin:round;stroke-miterlimit:2;">
    <path id="facebook" d="M212.773,550.768L85.479,550.768C50.471,550.768 22.05,522.346 22.05,487.339L22.05,85.621C22.05,50.614 50.471,22.192 85.479,22.192L487.197,22.192C522.204,22.192 550.626,50.614 550.626,85.621L550.626,487.339C550.626,522.346 522.204,550.768 487.197,550.768L322.139,550.768L322.139,377.765L403.81,377.765L420.781,285.605L322.257,285.605L322.257,252.843C322.257,204.17 341.349,185.432 390.847,185.432C406.285,185.432 418.66,185.903 425.731,186.61L425.731,103.171C412.178,99.4 379.179,95.629 360.087,95.629C259.207,95.629 212.773,143.241 212.773,245.889L212.773,285.605L150.548,285.605L150.548,377.765L212.773,377.765L212.773,550.768Z" style="fill:rgb(235,235,235);"/>
</svg>
