<?xml version="1.0" encoding="UTF-8" standalone="no"?>
<!DOCTYPE svg PUBLIC "-//W3C//DTD SVG 1.1//EN" "http://www.w3.org/Graphics/SVG/1.1/DTD/svg11.dtd">
<svg width="100%" height="100%" viewBox="0 0 576 576"   xmlns="http://www.w3.org/2000/svg" xmlns:xlink="http://www.w3.org/1999/xlink" xml:space="preserve" style="fill-rule:evenodd;clip-rule:evenodd;stroke-linejoin:round;stroke-miterlimit:2;">
    <g id="youtube" transform="matrix(1.00668,0,0,1.00668,-1.90051,0.545387)">
        <path d="M574.066,-0.542L574.066,571.637L1.888,571.637L1.888,-0.542L574.066,-0.542ZM491.678,183.105C486.758,164.783 472.412,150.419 454.098,145.477C420.93,136.557 287.977,136.557 287.977,136.557C287.977,136.557 155.024,136.557 121.857,145.429C103.533,150.356 89.181,164.726 84.277,183.057C75.404,216.271 75.404,285.548 75.404,285.548C75.404,285.548 75.404,354.824 84.277,387.99C89.164,406.306 103.589,420.731 121.857,425.618C155.024,434.538 287.977,434.538 287.977,434.538C287.977,434.538 420.93,434.538 454.098,425.618C472.412,420.731 486.79,406.306 491.678,387.99C500.55,354.824 500.55,285.548 500.55,285.548C500.55,285.548 500.55,216.271 491.678,183.105ZM245.747,349.13L245.747,221.965L355.83,285.073L245.747,349.13Z" style="fill:white;"/>
    </g>
</svg>
