<?xml version="1.0" encoding="UTF-8" standalone="no"?>
<!DOCTYPE svg PUBLIC "-//W3C//DTD SVG 1.1//EN" "http://www.w3.org/Graphics/SVG/1.1/DTD/svg11.dtd">
<svg width="100%" height="100%" viewBox="0 0 576 576" xmlns="http://www.w3.org/2000/svg" xmlns:xlink="http://www.w3.org/1999/xlink" xml:space="preserve" style="fill-rule:evenodd;clip-rule:evenodd;stroke-linejoin:round;stroke-miterlimit:2;">
    <g id="contact" transform="matrix(1.02613,0,0,1.02613,-14.8308,-14.4686)">
        <path d="M575.786,14.1L575.786,575.433L14.453,575.433L14.453,14.1L575.786,14.1ZM449.977,139.909L140.262,139.909C118.885,139.909 101.548,157.246 101.548,178.624L101.548,197.981C132.52,221.209 128.648,221.209 240.92,302.509C252.534,310.252 275.762,333.481 295.12,333.481C314.477,333.481 337.705,310.252 349.319,306.381C461.591,225.081 457.719,225.081 488.691,201.852L488.691,178.624C488.691,157.246 471.354,139.909 449.977,139.909ZM295.12,372.195C264.148,372.195 233.177,345.095 217.691,333.481C140.262,279.281 117.034,259.924 101.548,248.309L101.548,410.909C101.548,432.287 118.885,449.624 140.262,449.624L449.977,449.624C471.354,449.624 488.691,432.287 488.691,410.909L488.691,248.309C473.205,259.924 449.977,279.281 372.548,333.481C357.062,345.095 326.091,372.195 295.12,372.195Z" style="fill:rgb(235,235,235);"/>
    </g>
</svg>
