<?xml version="1.0" encoding="UTF-8" standalone="no"?>
<!DOCTYPE svg PUBLIC "-//W3C//DTD SVG 1.1//EN" "http://www.w3.org/Graphics/SVG/1.1/DTD/svg11.dtd">
<svg width="100%" height="100%" viewBox="0 0 576 576"   xmlns="http://www.w3.org/2000/svg" xmlns:xlink="http://www.w3.org/1999/xlink" xml:space="preserve" style="fill-rule:evenodd;clip-rule:evenodd;stroke-linejoin:round;stroke-miterlimit:2;">
    <g id="mastodon" transform="matrix(1.00668,0,0,1.00668,-1.90051,0.545387)">
        <path d="M574.066,-0.542L574.066,571.637L1.888,571.637L1.888,-0.542L574.066,-0.542ZM495.574,209.135C495.574,112.58 432.287,84.269 432.287,84.269C370.182,55.759 205.243,56.057 143.734,84.269C143.734,84.269 80.437,112.58 80.437,209.135C80.437,324.067 73.881,466.814 185.366,496.317C225.607,506.946 260.186,509.23 288.011,507.641C338.484,504.86 366.804,489.661 366.804,489.661L365.116,453.006C365.116,453.006 329.047,464.33 288.507,463.039C248.365,461.648 206.058,458.668 199.472,409.397C198.861,404.82 198.563,400.207 198.578,395.589C283.64,416.351 356.175,404.629 376.142,402.245C431.89,395.589 480.445,361.219 486.634,329.829C496.369,280.359 495.574,209.135 495.574,209.135ZM420.953,333.504L374.632,333.504L374.632,220.062C374.632,170.691 311.057,168.804 311.057,226.916L311.057,289.001L265.034,289.001L265.034,226.906C265.034,168.794 201.459,170.681 201.459,220.052L201.459,333.494L155.039,333.494C155.039,212.204 149.873,186.575 173.327,159.655C199.055,130.947 252.617,129.059 276.468,165.715L287.991,185.085L299.514,165.715C323.464,128.861 377.116,131.146 402.655,159.655C426.208,186.774 420.933,212.303 420.933,333.494L420.953,333.504Z" style="fill:white;"/>
    </g>
</svg>
