<?xml version="1.0" encoding="UTF-8" standalone="no"?>
<!DOCTYPE svg PUBLIC "-//W3C//DTD SVG 1.1//EN" "http://www.w3.org/Graphics/SVG/1.1/DTD/svg11.dtd">
<svg width="100%" height="100%" viewBox="0 0 576 576" version="1.1" xmlns="http://www.w3.org/2000/svg" xmlns:xlink="http://www.w3.org/1999/xlink" xml:space="preserve" xmlns:serif="http://www.serif.com/" style="fill-rule:evenodd;clip-rule:evenodd;stroke-linejoin:round;stroke-miterlimit:2;">
    <path id="youtube" d="M550.626,85.621L550.626,487.339C550.626,522.346 522.204,550.768 487.197,550.768L85.479,550.768C50.471,550.768 22.05,522.346 22.05,487.339L22.05,85.621C22.05,50.614 50.471,22.192 85.479,22.192L487.197,22.192C522.204,22.192 550.626,50.614 550.626,85.621ZM493.061,184.873C488.108,166.429 473.667,151.969 455.23,146.994C421.841,138.014 288,138.014 288,138.014C288,138.014 154.159,138.014 120.77,146.946C102.324,151.906 87.876,166.372 82.939,184.825C74.007,218.261 74.007,288 74.007,288C74.007,288 74.007,357.739 82.939,391.127C87.859,409.565 102.38,424.086 120.77,429.006C154.159,437.986 288,437.986 288,437.986C288,437.986 421.841,437.986 455.23,429.006C473.667,424.086 488.141,409.565 493.061,391.127C501.993,357.739 501.993,288 501.993,288C501.993,288 501.993,218.261 493.061,184.873ZM245.488,352.007L245.488,223.993L356.306,287.522L245.488,352.007Z" style="fill:rgb(235,235,235);"/>
</svg>
