<?xml version="1.0" encoding="UTF-8" standalone="no"?>
<!DOCTYPE svg PUBLIC "-//W3C//DTD SVG 1.1//EN" "http://www.w3.org/Graphics/SVG/1.1/DTD/svg11.dtd">
<svg width="100%" height="100%" viewBox="0 0 576 576"   xmlns="http://www.w3.org/2000/svg" xmlns:xlink="http://www.w3.org/1999/xlink" xml:space="preserve" style="fill-rule:evenodd;clip-rule:evenodd;stroke-linejoin:round;stroke-miterlimit:2;">
    <g id="phone" transform="matrix(1.00668,0,0,1.00668,-1.90051,0.545387)">
        <path d="M574.066,-0.542L574.066,571.637L1.888,571.637L1.888,-0.542L574.066,-0.542ZM182.144,91.123L114.945,109.45C101.658,113.116 92.494,125.181 92.494,138.926C92.494,327.847 245.678,481.03 434.599,481.03C448.344,481.03 460.409,471.867 464.075,458.427L482.402,391.228C486.372,376.414 478.889,360.988 464.685,355.032L391.377,324.487C378.854,319.294 364.498,322.96 355.945,333.345L325.095,371.068C271.335,345.716 227.809,302.189 202.456,248.43L240.027,217.58C250.412,209.027 254.078,194.671 248.885,182.147L218.34,108.839C212.536,94.636 196.958,87.152 182.144,91.123Z" style="fill:white;"/>
    </g>
</svg>
