<?xml version="1.0" encoding="UTF-8" standalone="no"?>
<!DOCTYPE svg PUBLIC "-//W3C//DTD SVG 1.1//EN" "http://www.w3.org/Graphics/SVG/1.1/DTD/svg11.dtd">
<svg width="100%" height="100%" viewBox="0 0 576 576"   xmlns="http://www.w3.org/2000/svg" xmlns:xlink="http://www.w3.org/1999/xlink" xml:space="preserve" style="fill-rule:evenodd;clip-rule:evenodd;stroke-linejoin:round;stroke-miterlimit:2;">
    <g id="instagram" transform="matrix(1.00668,0,0,1.00668,-1.90051,0.545387)">
        <path d="M574.066,-0.542L574.066,571.637L1.888,571.637L1.888,-0.542L574.066,-0.542ZM475.866,473.366L475.866,473.225C502.284,446.807 510.477,414.739 512.314,378.574C514.433,341.137 514.433,229.393 512.314,192.239C510.619,156.074 502.284,124.005 475.866,97.588C449.449,71.17 417.38,62.977 381.215,61.14C343.92,59.021 232.034,59.021 194.739,61.14C158.715,62.836 126.506,71.17 100.088,97.588C73.671,124.005 65.477,156.074 63.641,192.239C61.522,229.534 61.522,341.42 63.641,378.715C65.336,414.88 73.671,446.948 100.088,473.366C126.506,499.783 158.574,508.118 194.739,509.955C232.034,512.074 343.92,512.074 381.215,509.955C417.38,508.118 449.449,499.783 475.866,473.366ZM447.188,126.266L447.188,125.983C454.534,133.47 460.326,142.229 464.141,151.977C474.312,177.547 473.747,233.207 473.323,269.231C473.182,275.305 473.182,280.674 473.182,285.336C473.182,289.998 473.323,295.507 473.323,301.44C473.747,337.605 474.312,393.266 464.141,418.694C460.326,428.442 454.676,437.342 447.188,444.688C439.701,452.034 430.942,457.826 421.195,461.64C395.625,471.812 340.106,471.247 304.082,470.823C298.149,470.682 292.639,470.682 287.977,470.682C283.315,470.682 277.947,470.823 272.155,470.823C236.131,471.247 180.33,471.671 154.76,461.64C145.012,457.826 136.112,452.175 128.766,444.688C121.42,437.201 115.628,428.442 111.814,418.694C101.783,393.125 102.349,337.182 102.631,301.158C102.772,295.366 102.772,289.998 102.772,285.477C102.772,280.956 102.631,275.588 102.631,269.796C102.349,233.772 101.783,177.829 111.814,152.259C115.628,142.512 121.279,133.612 128.766,126.266C136.253,118.92 145.012,113.128 154.76,109.313C180.33,99.142 235.849,99.707 271.872,100.131C277.806,100.272 283.315,100.272 287.977,100.272C292.639,100.272 298.007,100.131 303.799,100.131C339.823,99.707 395.625,99.283 421.195,109.313C430.942,113.128 439.842,118.92 447.188,126.266ZM352.396,189.131L352.255,189.131C333.208,176.41 310.811,169.618 287.907,169.618C224.348,169.618 172.048,221.919 172.048,285.477C172.048,324.143 191.404,360.348 223.558,381.823C242.621,394.569 265.045,401.375 287.977,401.375C351.557,401.375 403.875,349.057 403.875,285.477C403.875,246.818 384.533,210.618 352.396,189.131ZM246.161,222.894C258.557,214.607 273.137,210.182 288.048,210.182C329.392,210.182 363.413,244.203 363.413,285.548C363.413,310.687 350.834,334.228 329.934,348.201C317.539,356.488 302.958,360.913 288.048,360.913C246.704,360.913 212.683,326.892 212.683,285.548C212.683,260.408 225.262,236.867 246.161,222.894ZM393.647,187.294L393.788,187.294C398.168,190.261 403.395,191.815 408.763,191.815C412.295,191.815 415.826,191.109 419.076,189.696C422.325,188.283 425.433,186.305 427.834,183.763C430.236,181.22 432.355,178.253 433.626,175.004C434.898,171.755 435.604,168.223 435.604,164.691C435.604,159.323 434.05,154.096 431.084,149.717C428.117,145.337 423.879,141.947 418.934,139.828C413.99,137.709 408.48,137.285 403.253,138.274C398.026,139.263 393.082,141.805 389.409,145.62C385.736,149.434 383.052,154.096 382.063,159.464C381.074,164.832 381.498,170.201 383.617,175.145C385.736,180.09 389.268,184.328 393.647,187.294Z" style="fill:white;"/>
    </g>
</svg>
