<?xml version="1.0" encoding="UTF-8" standalone="no"?>
<!DOCTYPE svg PUBLIC "-//W3C//DTD SVG 1.1//EN" "http://www.w3.org/Graphics/SVG/1.1/DTD/svg11.dtd">
<svg width="100%" height="100%" viewBox="0 0 576 576" version="1.1" xmlns="http://www.w3.org/2000/svg" xmlns:xlink="http://www.w3.org/1999/xlink" xml:space="preserve" xmlns:serif="http://www.serif.com/" style="fill-rule:evenodd;clip-rule:evenodd;stroke-linejoin:round;stroke-miterlimit:2;">
    <g id="phone" transform="matrix(1.02613,0,0,1.02613,-14.8308,-14.4686)">
        <path d="M575.786,14.1L575.786,575.433L14.453,575.433L14.453,14.1L575.786,14.1ZM191.292,104.028L125.367,122.007C112.332,125.603 103.342,137.44 103.342,150.924C103.342,336.264 253.622,486.544 438.962,486.544C452.446,486.544 464.283,477.554 467.879,464.369L485.858,398.444C489.754,383.91 482.412,368.777 468.478,362.934L396.56,332.968C384.274,327.874 370.19,331.47 361.799,341.658L331.533,378.666C278.793,353.794 236.092,311.093 211.22,258.353L248.078,228.087C258.266,219.696 261.862,205.612 256.768,193.326L226.802,121.408C221.109,107.474 205.826,100.132 191.292,104.028Z" style="fill:rgb(235,235,235);"/>
    </g>
</svg>
