<?xml version="1.0" encoding="UTF-8" standalone="no"?>
<!DOCTYPE svg PUBLIC "-//W3C//DTD SVG 1.1//EN" "http://www.w3.org/Graphics/SVG/1.1/DTD/svg11.dtd">
<svg width="100%" height="100%" viewBox="0 0 576 576" version="1.1" xmlns="http://www.w3.org/2000/svg" xmlns:xlink="http://www.w3.org/1999/xlink" xml:space="preserve" xmlns:serif="http://www.serif.com/" style="fill-rule:evenodd;clip-rule:evenodd;stroke-linejoin:round;stroke-miterlimit:2;">
    <path id="location" d="M550.626,85.621L550.626,487.339C550.626,522.346 522.204,550.768 487.197,550.768L85.479,550.768C50.471,550.768 22.05,522.346 22.05,487.339L22.05,85.621C22.05,50.614 50.471,22.192 85.479,22.192L487.197,22.192C522.204,22.192 550.626,50.614 550.626,85.621ZM307.784,491.564C350.606,437.973 448.272,308.086 448.272,235.129C448.272,146.645 376.484,74.857 288,74.857C199.516,74.857 127.728,146.645 127.728,235.129C127.728,308.086 225.394,437.973 268.216,491.564C278.484,504.336 297.516,504.336 307.784,491.564ZM288,181.705C317.308,181.705 341.424,205.821 341.424,235.129C341.424,264.437 317.308,288.553 288,288.553C258.692,288.553 234.576,264.437 234.576,235.129C234.576,205.821 258.692,181.705 288,181.705Z" style="fill:rgb(235,235,235);"/>
</svg>
